<svg width="118" height="88" viewBox="0 0 118 88" fill="none" xmlns="http://www.w3.org/2000/svg">
<path d="M115.609 29.3062C116.507 28.6018 117.842 29.2608 117.842 30.3743V76.8444C117.842 82.8662 112.893 87.7518 106.794 87.7518H11.0477C4.94843 87.7518 0 82.8662 0 76.8444V30.397C0 29.2608 1.31191 28.6245 2.23255 29.329C7.38812 33.2829 14.2239 38.3048 37.7001 55.1432C42.5565 58.6426 50.7502 66.0051 58.9209 65.9597C67.1376 66.0278 75.4924 58.5063 80.1646 55.1432C103.641 38.3048 110.454 33.2602 115.609 29.3062ZM58.9209 58.6653C64.2606 58.7562 71.9479 52.03 75.8146 49.2577C106.357 27.3747 108.681 25.4659 115.724 20.0122C117.059 18.9896 117.842 17.399 117.842 15.7174V11.3999C117.842 5.3781 112.893 0.492493 106.794 0.492493H11.0477C4.94843 0.492493 0 5.3781 0 11.3999V15.7174C0 17.399 0.782543 18.9669 2.11747 20.0122C9.16035 25.4432 11.485 27.3747 42.0272 49.2577C45.8938 52.03 53.5812 58.7562 58.9209 58.6653Z" fill="black"/>
<path d="M0 22.3148C0 22.3148 1.03594 24.6145 1.38126 25.0744C1.72657 25.5344 5.52503 28.409 5.52503 28.409L37.9846 52.0962L52.0273 62.215L55.8258 64.1698C56.8865 64.7632 59.0381 64.7636 60.3149 64.1698L68.4873 59.6853L80.6884 52.0962L92.4291 43.2423L116.601 24.7295L117.407 23.3496L117.612 21.6248C117.612 21.6248 118.302 36.3546 117.842 35.7797C117.381 35.2047 117.407 34.1583 116.026 34.5033C114.644 34.8483 105.896 41.8624 105.896 41.8624L81.7244 59.6853L75.3936 63.9398L69.0628 68.0793L64.2284 70.724C64.2284 70.724 60.43 71.9888 60.0847 71.9888C59.7394 71.9888 56.4145 72.081 55.9409 71.9888C55.4673 71.8967 52.7038 70.9498 52.0273 70.724C51.3508 70.4982 46.2721 67.1594 46.2721 67.1594L38.5601 61.7551L32.3444 56.8106L26.5892 53.0161L8.86306 39.7927L3.56825 35.8831C3.56825 35.8831 1.95678 34.7333 1.38126 34.2733C0.805733 33.8134 0.539414 35.0442 0 35.5382V22.3148Z" fill="#E5E5E5"/>
</svg>
