<svg width="351" height="351" viewBox="0 0 351 351" fill="none" xmlns="http://www.w3.org/2000/svg">
<path d="M172.527 91.7018L74.45 146.255L172.527 206.472L276.267 146.255L172.527 91.7018Z" fill="#003354" stroke="#003354"/>
<path d="M104.857 195.741V175.171L176.104 206.472L203.828 187.096L241.389 175.171V195.741L176.104 234.196L104.857 195.741Z" fill="#003354" stroke="#003354"/>
<path d="M258.381 164.738L248.543 168.613L246.755 221.676L253.313 214.223L258.381 220.781V164.738Z" fill="#003354" stroke="#003354"/>
<path d="M342 175.5C342 267.455 267.455 342 175.5 342C83.5446 342 9 267.455 9 175.5C9 83.5446 83.5446 9 175.5 9C267.455 9 342 83.5446 342 175.5Z" stroke="#003354" stroke-width="18"/>
</svg>
