<svg width="351" height="351" viewBox="0 0 351 351" fill="none" xmlns="http://www.w3.org/2000/svg">
<circle cx="175.5" cy="175.5" r="166.5" stroke="#003354" stroke-width="18"/>
<path d="M79.7729 229.607V92.2589L173.419 131.452V268.453L79.7729 229.607Z" fill="#003354" stroke="#003354"/>
<path d="M180.009 266.025V133.186V126.596L272.268 86.7095V226.832L180.009 266.025Z" fill="#003354" stroke="#003354"/>
<path d="M100.93 95.7273V80.1196L172.031 127.29L100.93 95.7273Z" fill="#003354" stroke="#003354"/>
<path d="M121.393 86.7095V68.6739L172.031 121.046L121.393 86.7095Z" fill="#003354" stroke="#003354"/>
<path d="M251.111 79.4259V93.9931L184.171 123.474L251.111 79.4259Z" fill="#003354" stroke="#003354"/>
<path d="M177.581 119.312L230.647 68.6739V84.2816L177.581 119.312Z" fill="#003354" stroke="#003354"/>
<path d="M260.128 158.505L194.923 187.986V199.085L260.128 168.216V158.505Z" fill="#FBF9F9"/>
<path d="M193.189 223.017V210.531L258.395 182.784V191.108L193.189 223.017Z" fill="#FFFBFB"/>
<path d="M193.882 245.908V233.422L258.394 204.981V214.693L193.882 245.908Z" fill="#FDFAFA"/>
</svg>
